PathFileType	4	(X/Y/Z)	C:/Users/beibeiliu/ov580/test_trc/User2\sequence.42_training_dense_right.trc
DataRate	CameraRate	NumFrames	NumMarkers	Units	OrigDataRate	OrigDataStartFrame	OrigNumFrames
120	120	16	19	mm	120	29	200
Frame#	Time	ThumbCMC			ThumbMCP			ThumbIP			ThumbTip			IndexMCP			IndexPIP			IndexTip			MiddleMCP			MiddlePIP			MiddleTip			RingMCP			RingPIP			RingTip			PinkyMCP			PinkyPIP			PinkyTip			BackHand1			BackHand2			BackHand3	
		X0	Y0	Z0	X1	Y1	Z1	X2	Y2	Z2	X3	Y3	Z3	X4	Y4	Z4	X5	Y5	Z5	X6	Y6	Z6	X7	Y7	Z7	X8	Y8	Z8	X9	Y9	Z9	X10	Y10	Z10	X11	Y11	Z11	X12	Y12	Z12	X13	Y13	Z13	X14	Y14	Z14	X15	Y15	Z15	X16	Y16	Z16	X17	Y17	Z17	X18	Y18	Z18	
28	0.233333	102.766	71.6121	-9.50196	98.6007	94.9471	-29.3623	92.0898	116.442	-50.5713	87.2929	136.626	-65.3141	74.75	64.8758	-91.489	62.475	70.5397	-111.085	44.5769	76.2785	-137.733	60.1824	38.0971	-94.9014	41.4559	41.9629	-117.084	18.9117	44.0045	-142.562	42.8313	17.4823	-84.2378	24.7117	17.5182	-101.04	5.4659	19.9914	-120.319	26.3641	1.66514	-56.2575	2.68641	2.97695	-64.1409	-17.5942	0.103519	-72.5251	83.9142	9.92574	-37.3894	100.155	2.46374	-7.25379	107.165	39.7106	-29.6091	
29	0.241667	107.909	67.4015	-10.1788	105.365	92.2592	-28.5591	102.117	117.685	-55.2327	95.4591	133.699	-72.1113	74.1011	62.255	-93.8099	63.4028	70.356	-112.669	46.9627	77.4444	-134.684	61.5428	36.4298	-97.927	42.1727	41.3641	-121.549	23.6981	48.9909	-147.768	46.0688	16.3841	-83.593	27.7687	18.651	-106.115	9.80861	22.3469	-127.915	28.3615	3.44465	-57.0929	2.37269	2.92653	-66.8762	-16.0495	-0.817862	-75.9376	81.7406	8.44266	-39.9076	98.784	-1.01215	-9.81044	110.106	36.8566	-28.0936	
30	0.25	114.405	67.2566	-14.0269	114.267	91.5077	-31.9093	108.933	114.534	-54.2028	102.708	131.171	-69.5191	81.5971	68.1828	-92.0906	64.3367	75.2371	-113.304	50.3049	85.061	-132.695	64.9693	39.8479	-97.5146	46.7675	46.296	-124.055	27.1401	53.0409	-147.506	46.0998	19.909	-86.2564	29.8063	24.6937	-106.595	5.96081	27.9002	-127.888	29.4397	8.61003	-59.9358	6.04952	9.9371	-71.7432	-12.2394	5.28468	-81.8471	81.0769	8.76576	-39.2	97.3247	1.33599	-12.7266	112.326	33.3732	-30.0001	
31	0.258333	117.555	65.4587	-13.4769	117.446	91.8805	-34.4974	113.168	114.401	-55.5775	106.526	133.605	-73.0419	82.8564	65.1707	-90.8139	68.4636	79.6127	-114.156	50.6968	89.5815	-133.457	66.219	41.3926	-99.2377	48.1686	49.154	-123.002	28.9983	62.1516	-148.878	44.1285	26.0228	-86.3981	23.8934	30.7459	-103.975	5.80708	41.4167	-121.549	28.5069	10.6009	-57.804	6.94581	14.1086	-70.2818	-13.2676	12.6644	-84.8249	81.3205	11.5937	-40.4549	100.421	1.14744	-12.3933	110.77	30.2532	-31.1651	
32	0.266667	122.158	65.2587	-12.2952	120.508	91.5341	-35.5703	116.854	115.107	-59.3013	107.272	131.612	-75.5468	85.907	62.9273	-91.0153	72.6506	78.8818	-117.213	57.0667	87.7708	-134.173	65.9421	43.6446	-94.9431	46.0044	57.2232	-121.06	20.6102	67.5397	-140.183	42.579	27.5175	-83.0931	22.1702	36.1031	-100.293	-3.38276	48.2992	-115.128	29.6121	13.0464	-57.1254	3.92437	14.9044	-65.892	-18.9885	19.8697	-82.1511	80.3913	7.75246	-39.1298	94.5184	-1.21701	-12.4096	110.018	29.2596	-34.3618	
33	0.275	121.341	63.6439	-14.7341	123.571	88.7402	-32.9144	119.028	112.504	-57.8498	111.731	129.668	-78.6977	86.8806	62.4539	-95.4555	74.3848	70.5045	-116.934	56.1168	77.6138	-137.669	59.7647	43.0762	-91.8928	38.6725	59.8643	-114.831	14.6325	76.2298	-128.268	37.2434	28.3052	-82.7142	17.3461	36.9796	-96.6692	-5.74202	50.7942	-106.714	24.7968	14.9696	-55.9165	1.59851	20.8089	-63.1228	-23.7671	26.5969	-75.0975	81.3722	7.32399	-39.5361	96.3129	0.476831	-14.1813	113.94	30.9544	-31.5714	
34	0.283333	121.369	62.6434	-17.696	124.797	87.9917	-37.989	118.906	107.789	-58.6573	114.647	127.948	-80.367	84.3934	57.2302	-93.0746	74.8827	69.8328	-120.961	58.9918	76.1313	-139.024	60.5288	48.3213	-95.3987	37.407	61.167	-111.459	8.25063	80.8085	-122.338	39.2514	31.0092	-80.4077	17.1748	40.1762	-91.2968	-7.63124	61.0469	-103.889	23.9145	21.1415	-52.9199	0.230164	33.1529	-56.5884	-19.6211	46.3834	-65.4035	79.8603	7.57025	-36.141	98.3283	0.507675	-10.266	112.883	30.0825	-34.4077	
35	0.291667	124.253	61.8981	-14.2275	125.436	87.3631	-39.5853	122.988	109.86	-61.5948	113.095	124.375	-79.3264	88.772	61.184	-95.9061	74.4782	67.8778	-115.803	61.3868	79.9271	-138.1	60.024	45.4056	-95.7484	37.2306	58.5278	-113.317	9.60908	73.6785	-124.394	36.9884	32.5501	-74.855	14.8305	50.0931	-87.8428	-10.9537	68.3045	-92.6339	21.9359	29.7017	-47.8785	7.49453	46.3129	-45.6076	-11.5299	67.6508	-45.7893	84.1921	8.9502	-38.4826	101.215	-0.295695	-8.22456	113.825	27.366	-33.1086	
36	0.3	124.44	63.4808	-18.5887	126.059	87.1531	-36.2332	121.527	110.479	-66.4671	114.274	126.543	-81.0616	86.4668	58.8272	-94.8162	76.9376	70.9735	-117.62	58.4676	79.0946	-136.92	63.6546	44.1428	-96.6143	40.129	52.0151	-114.764	14.1891	67.3904	-134.255	37.5294	37.9981	-73.4829	12.7993	57.3245	-80.284	-7.87177	79.7099	-80.9187	28.5638	35.7782	-44.9844	12.8315	62.6736	-36.0767	7.45522	81.0294	-31.2252	83.3127	11.0782	-37.8102	101.313	2.48224	-13.5852	116.314	28.8311	-30.9974	
37	0.308333	123.53	64.2054	-14.9143	127.12	90.323	-36.5006	119.888	113.658	-66.4817	110.487	128.995	-81.5692	85.1238	59.9721	-93.0622	72.7733	67.4578	-116.673	59.4678	80.3002	-140.289	59.8392	42.5422	-95.4549	35.6168	50.4263	-114.202	10.132	62.6321	-132.861	34.5079	42.6938	-70.312	11.5202	67.1472	-69.4684	-1.84716	91.2947	-61.47	26.8732	40.6096	-40.0191	18.5511	66.1152	-25.7528	18.3287	88.4775	-13.2036	82.4475	9.57696	-38.1478	98.2486	0.261694	-13.4795	112.951	31.1114	-36.1991	
38	0.316667	124.663	64.7829	-15.4442	125.126	90.3163	-36.9078	116.668	113.342	-65.2873	107.745	129.827	-77.7418	81.1558	58.3922	-95.5859	70.1836	65.2517	-118.476	53.1295	71.4523	-140.678	54.3476	43.9361	-90.7464	32.9412	58.0991	-109.003	6.23961	72.9843	-125.962	32.2215	53.5364	-63.2971	14.7136	72.6143	-54.1326	10.2844	99.72	-34.2452	28.6508	41.5231	-38.3116	21.9269	63.6102	-20.698	28.8167	84.88	-3.64079	80.2311	12.1051	-37.0433	99.2343	3.69746	-13.3674	112.994	29.6437	-35.7234	
39	0.325	126.912	67.1843	-16.7217	121.159	90.6635	-40.4551	110.618	111.634	-63.4278	102.492	129.822	-75.7236	81.6841	58.1951	-89.5394	67.7355	62.1299	-113.757	50.2609	65.1726	-137.198	50.8468	54.1864	-88.8146	23.5211	70.5672	-98.5779	-3.08046	89.6455	-103.562	29.6544	57.3258	-53.0936	20.2827	80.3666	-38.0575	24.8128	100.672	-10.9112	29.7612	45.931	-37.1764	25.1363	68.6095	-14.5967	39.0246	83.5883	7.20754	76.3239	10.6732	-36.9431	96.9007	1.4096	-8.92824	113.14	30.5314	-36.0642	
40	0.333333	125.113	65.5833	-20.3561	120.397	89.9152	-37.9596	111.205	113.543	-61.4588	99.3299	128.602	-77.0745	78.5209	56.6319	-90.4238	59.8648	58.7172	-110.429	40.2866	60.9259	-134.676	45.5679	57.7582	-79.4985	24.101	81.269	-80.7916	-1.46911	106.446	-73.314	31.8847	55.0964	-48.1193	24.5705	80.5118	-29.1286	31.206	95.1551	-0.851251	25.475	44.5732	-33.2796	25.9948	68.3062	-10.3286	42.6004	79.0773	11.0313	76.4663	12.6048	-38.4133	97.1448	0.0468404	-11.8414	109.495	28.7369	-34.1643	
41	0.341667	123.641	63.3732	-19.0599	122.591	89.9654	-36.1349	109.532	111.302	-62.0046	99.0733	130.034	-78.7067	78.2031	57.4864	-91.839	58.3466	60.7496	-111.483	40.6769	65.4221	-130.946	45.0135	64.3694	-76.6058	21.5168	85.6338	-68.2682	2.84811	110.072	-48.0823	30.68	57.5806	-48.5404	25.0778	78.8619	-31.547	34.6019	92.5781	2.65133	26.0251	41.3262	-35.6593	28.0821	69.565	-13.0753	40.6188	76.7645	9.05053	77.4463	9.09934	-38.0006	94.6825	1.45854	-13.378	112.917	29.7562	-35.0058	
42	0.35	122.44	63.2696	-18.5427	120.83	89.7189	-33.7659	111.237	114.592	-60.266	100.364	132.297	-77.3102	74.2854	58.9982	-92.3332	57.3693	66.0698	-108.68	35.7143	75.9269	-125.363	44.1887	61.2612	-76.0944	22.9276	82.1748	-67.6871	7.78845	106.731	-42.5094	34.5516	54.9147	-56.1921	20.9423	77.116	-37.4495	28.6303	92.3503	-10.4336	25.8083	38.8166	-39.2593	20.4448	63.6416	-19.672	34.6653	78.0241	5.26394	80.2777	8.99826	-39.0549	96.2615	-0.241305	-14.397	112.276	30.9433	-37.2348	
43	0.358333	124.712	67.4028	-15.7751	118.914	91.5191	-31.2728	109.827	116.19	-53.8534	98.4238	132.524	-68.8794	77.7568	63.639	-87.7875	55.0044	80.2915	-108.514	32.8191	92.479	-115.15	52.7212	56.7312	-79.7651	25.1451	82.371	-76.1785	8.7441	101.405	-50.9487	36.388	47.4663	-65.7839	16.8078	73.0628	-50.952	15.4383	87.0847	-22.672	26.4444	35.9086	-45.1896	19.2705	61.3305	-28.273	25.4969	76.3516	-3.29906	85.1595	9.96941	-39.5742	101.715	0.254026	-15.6935	114.393	29.7984	-32.3742	
